<svg xmlns="http://www.w3.org/2000/svg" xmlns:xlink="http://www.w3.org/1999/xlink" xmlns:svgjs="http://svgjs.dev/svgjs" version="1.1" width="2000" height="1247" viewBox="0 0 2000 1247"><g transform="matrix(1,0,0,1,-1.2121212121212466,0.504858299595071)"><svg xmlns="http://www.w3.org/2000/svg" xmlns:xlink="http://www.w3.org/1999/xlink" viewBox="0 0 396 247" data-background-color="#03a9f4" preserveAspectRatio="xMidYMid meet" height="1247" width="2000"><g id="tight-bounds" transform="matrix(1,0,0,1,0.2400000000000091,-0.09999999999999432)"><svg viewBox="0 0 395.52 247.2" height="247.2" width="395.52"><g><svg/></g><g><svg viewBox="0 0 395.52 247.2" height="247.2" width="395.52"><g transform="matrix(1,0,0,1,75.54432,95.64827988516745)"><svg viewBox="0 0 244.43135999999998 55.90344022966507" height="55.90344022966507" width="244.43135999999998"><g><svg viewBox="0 0 244.43135999999998 55.90344022966507" height="55.90344022966507" width="244.43135999999998"><g><svg viewBox="0 0 244.43135999999998 55.90344022966507" height="55.90344022966507" width="244.43135999999998"><g><svg viewBox="0 0 244.43135999999998 55.90344022966507" height="55.90344022966507" width="244.43135999999998"><g id="textblocktransform"><svg viewBox="0 0 244.43135999999998 55.90344022966507" height="55.90344022966507" width="244.43135999999998" id="textblock"><g><svg viewBox="0 0 244.43135999999998 55.90344022966507" height="55.90344022966507" width="244.43135999999998"><g transform="matrix(1,0,0,1,0,0)"><svg width="244.43135999999998" viewBox="2.86 -35.01 153.05999999999997 35.01" height="55.90344022966507" data-palette-color="#d7dbde"><path d="M9.84-13.99L23.85-13.99 23.85-21Q23.85-22.44 23.3-23.72 22.75-25 21.8-25.95 20.85-26.9 19.57-27.45 18.29-28 16.85-28L16.85-28Q15.41-28 14.12-27.45 12.84-26.9 11.89-25.95 10.94-25 10.39-23.72 9.84-22.44 9.84-21L9.84-21 9.84-13.99ZM30.86-21L30.86 0 23.85 0 23.85-7.01 9.84-7.01 9.84 0 2.86 0 2.86-21Q2.86-23.9 3.96-26.45 5.05-29 6.95-30.91 8.84-32.81 11.39-33.91 13.94-35.01 16.85-35.01L16.85-35.01Q19.75-35.01 22.3-33.91 24.85-32.81 26.76-30.91 28.66-29 29.76-26.45 30.86-23.9 30.86-21L30.86-21ZM50.58-28L50.58 0 43.6 0 43.6-28 33.08-28 33.08-35.01 61.08-35.01 61.08-28 50.58-28ZM70.33-13.99L84.35-13.99 84.35-21Q84.35-22.44 83.8-23.72 83.25-25 82.29-25.95 81.34-26.9 80.06-27.45 78.78-28 77.34-28L77.34-28Q75.9-28 74.62-27.45 73.33-26.9 72.38-25.95 71.43-25 70.88-23.72 70.33-22.44 70.33-21L70.33-21 70.33-13.99ZM91.35-21L91.35 0 84.35 0 84.35-7.01 70.33-7.01 70.33 0 63.35 0 63.35-21Q63.35-23.9 64.45-26.45 65.55-29 67.44-30.91 69.33-32.81 71.88-33.91 74.43-35.01 77.34-35.01L77.34-35.01Q80.24-35.01 82.8-33.91 85.35-32.81 87.25-30.91 89.16-29 90.25-26.45 91.35-23.9 91.35-21L91.35-21ZM125.43-35.01L125.43 0 117.94 0 104.44-23.05 104.44 0 97.43 0 97.43-35.01 104.92-35.01 118.43-11.94 118.43-35.01 125.43-35.01ZM155.92-7.01L155.92 0 131.92 0 131.92-35.01 155.92-35.01 155.92-28 138.93-28 138.93-21 150.43-21 150.43-13.99 138.93-13.99 138.93-7.01 155.92-7.01Z" opacity="1" transform="matrix(1,0,0,1,0,0)" fill="#03a9f4" class="wordmark-text-0" data-fill-palette-color="primary" id="text-0"/></svg></g></svg></g></svg></g></svg></g></svg></g></svg></g></svg></g><path d="M195.562 89.648L195.562 30.187 8.736 30.187 8.736 217.013 195.562 217.013 195.562 157.552 190.521 157.552 190.521 211.972 13.777 211.972 13.777 35.228 190.521 35.228 190.521 89.648Z" fill="#03a9f4" stroke="transparent" data-fill-palette-color="tertiary"/></svg></g><defs fill="#000000"/></svg><rect width="395.52" height="247.2" fill="none" stroke="none" visibility="hidden"/></g></svg></g></svg>